<?xml version="1.0" standalone="no"?><!DOCTYPE svg PUBLIC "-//W3C//DTD SVG 1.1//EN" "http://www.w3.org/Graphics/SVG/1.1/DTD/svg11.dtd"><svg t="1553237068696" class="icon" style="" viewBox="0 0 1024 1024" version="1.1" xmlns="http://www.w3.org/2000/svg" p-id="7616" xmlns:xlink="http://www.w3.org/1999/xlink" width="25" height="25"><defs><style type="text/css"></style></defs><path d="M512 0a512 512 0 1 0 512 512A512 512 0 0 0 512 0z m0 796.48a56.96 56.96 0 1 1 56.96-56.96A56.96 56.96 0 0 1 512 796.48z m54.24-227.68A60.32 60.32 0 0 1 512 624a54.72 54.72 0 0 0 5.92 1.12h-11.84A53.44 53.44 0 0 0 512 624a59.04 59.04 0 0 1-53.12-55.84l-12.48-283.68a54.24 54.24 0 0 1 54.56-57.12H528a53.28 53.28 0 0 1 54.24 57.12z" fill="#F5A623" p-id="7617"></path></svg>